<svg xmlns="http://www.w3.org/2000/svg" viewBox="0 0 32 29.7">
<path fill="#092327" d="M29.7,6.9h-4l-5.4-6.4c-0.4-0.5-1.1-0.6-1.6-0.1c-0.5,0.4-0.6,1.1-0.1,1.6l4.2,5H9.3l4.2-5c0.4-0.5,0.3-1.2-0.1-1.6 c-0.5-0.4-1.2-0.3-1.6,0.1l0,0L6.3,6.9h-4C1,6.9,0,7.9,0,9.1v2.3c0,0.9,0.5,1.6,1.3,2l0.4,2.7c0.1,0.6,0.7,1.1,1.3,1s1.1-0.7,1-1.3 l-0.3-2.1h24.8l-1.8,12.7c-0.1,0.6-0.6,1-1.1,1h-2.6c-0.6,0-1.1,0.5-1.1,1.1s0.5,1.1,1.1,1.1h2.6c1.7,0,3.2-1.2,3.4-2.9l1.9-13.3 c0.8-0.4,1.3-1.2,1.3-2V9.1C32,7.9,31,6.9,29.7,6.9z M2.3,11.4V9.1h27.4v2.3H2.3z M20.6,28.6c0,0.6-0.5,1.1-1.1,1.1H6.5 c-1.7,0-3.2-1.2-3.4-2.9l-1-7.3c-0.1-0.6,0.3-1.2,1-1.3c0.6-0.1,1.2,0.3,1.3,1l1.1,7.4c0.1,0.6,0.6,1,1.1,1h12.9 C20.1,27.5,20.6,28,20.6,28.6z M9.1,24.2L8,17.3c-0.1-0.6,0.3-1.2,1-1.3c0.6-0.1,1.2,0.3,1.3,1l1.1,6.9c0.1,0.6-0.3,1.2-0.9,1.3 c0,0,0,0,0,0h-0.2C9.7,25.2,9.2,24.7,9.1,24.2z M16,25.1c-0.6,0-1.1-0.5-1.1-1.1v-6.9c0-0.6,0.5-1.1,1.1-1.1c0.6,0,1.1,0.5,1.1,1.1 V24C17.1,24.6,16.6,25.1,16,25.1z M21.7,25.1h-0.2c-0.6-0.1-1.1-0.7-1-1.3c0,0,0,0,0,0l1.1-6.9c0.1-0.6,0.7-1.1,1.3-1 c0.6,0.1,1.1,0.7,1,1.3l-1.1,6.9C22.8,24.7,22.3,25.2,21.7,25.1z"/>
</svg>