<?xml version="1.0" encoding="utf-8"?>
<!-- Generator: Adobe Illustrator 25.0.1, SVG Export Plug-In . SVG Version: 6.00 Build 0)  -->
<svg version="1.1" xmlns="http://www.w3.org/2000/svg" xmlns:xlink="http://www.w3.org/1999/xlink" x="0px" y="0px"
	 viewBox="0 0 465.8 148" style="enable-background:new 0 0 465.8 148;" xml:space="preserve">
<style type="text/css">
	.st0{display:none;}
	.st1{display:inline;}
	.st2{fill:#A2FFD2;}
	.st3{display:inline;fill:#9FD8F5;}
	.st4{fill:#66B2D4;}
	.st5{fill:#FF00FF;}
	.st6{fill:#C5E9FF;}
	.st7{fill:none;stroke:#19282D;stroke-width:10;stroke-linecap:round;stroke-miterlimit:10;}
	.st8{fill:#D0E562;}
	.st9{fill:#BDE4F1;}
	.st10{fill:#9ECAD9;}
	.st11{fill:#D5EDF5;}
	.st12{fill:none;stroke:#0B5351;stroke-width:3.4932;stroke-linecap:round;stroke-miterlimit:10;}
	.st13{fill:#0B5351;}
</style>
<g id="Layer_1" class="st0">
	<g class="st1">
		<g>
			<g>
				<path class="st2" d="M86.2,92.6c11.6,0,11.6-18,0-18C74.7,74.6,74.6,92.6,86.2,92.6L86.2,92.6z"/>
			</g>
		</g>
		<g>
			<g>
				<path class="st2" d="M425.4,179.4c11.6,0,11.6-18,0-18C413.8,161.4,413.8,179.4,425.4,179.4L425.4,179.4z"/>
			</g>
		</g>
		<g>
			<g>
				<path class="st2" d="M77.8,144.3c10.7,0,21-9.4,20.5-20.5c-0.5-11.1-9-20.5-20.5-20.5c-10.7,0-21,9.4-20.5,20.5
					C57.8,134.9,66.3,144.3,77.8,144.3L77.8,144.3z"/>
			</g>
		</g>
		<g>
			<g>
				<path class="st2" d="M328.6,131.6c15.4,0,30.2-13.6,29.5-29.5c-0.7-16-13-29.5-29.5-29.5c-15.4,0-30.2,13.6-29.5,29.5
					C299.8,118.1,312,131.6,328.6,131.6L328.6,131.6z"/>
			</g>
		</g>
		<g>
			<g>
				<path class="st2" d="M388.9,245.6c18,0,35.3-15.9,34.5-34.5c-0.8-18.7-15.2-34.5-34.5-34.5c-18,0-35.3,15.9-34.5,34.5
					C355.2,229.8,369.5,245.6,388.9,245.6L388.9,245.6z"/>
			</g>
		</g>
		<g>
			<g>
				<path class="st2" d="M160.8,97.1c17,0,33.3-14.9,32.5-32.5c-0.8-17.6-14.3-32.5-32.5-32.5c-17,0-33.3,14.9-32.5,32.5
					C129.1,82.2,142.6,97.1,160.8,97.1L160.8,97.1z"/>
			</g>
		</g>
		<g>
			<g>
				<path class="st2" d="M218.5,380.2c20.7,0,40.5-18.2,39.5-39.5c-1-21.4-17.4-39.5-39.5-39.5c-20.7,0-40.5,18.2-39.5,39.5
					C180,362.1,196.4,380.2,218.5,380.2L218.5,380.2z"/>
			</g>
		</g>
		<g>
			<g>
				<path class="st2" d="M225.6,349.4c19.9,0.8,38.5-3.4,55.7-12.4c17.9-5.8,33.4-15.8,46.5-29.9c14.1-13.1,24.1-28.6,29.9-46.5
					c9-17.2,13.2-35.8,12.4-55.7c-1.7-12.8-3.4-25.6-5.2-38.4c-6.9-24.5-19.3-45.7-37.2-63.8c-9.7-7.5-19.5-15.1-29.2-22.6
					c-22.5-13.1-46.8-19.6-72.9-19.7c-19.9-0.8-38.5,3.4-55.7,12.4c-17.9,5.8-33.4,15.8-46.5,29.9c-14.1,13.1-24.1,28.6-29.9,46.5
					c-9,17.2-13.2,35.8-12.4,55.7c1.7,12.8,3.4,25.6,5.2,38.4c6.9,24.5,19.3,45.7,37.2,63.8c9.7,7.5,19.5,15.1,29.2,22.6
					C175.2,342.8,199.5,349.4,225.6,349.4L225.6,349.4z"/>
			</g>
		</g>
	</g>
	<path class="st3" d="M364.6,298.4c-0.8-3.6-4.8-6-9.5-7.4c-21.3-6.3-31.5-5.8-43.9-18.4c-1.2-1.3-3-3.2-4.6-5.7l0.5-0.1
		c4.8-5.7,9.8-12.2,15.7-22.8c5.4-9.7,17.9-32.9,18.9-63.8c0.5-14.4,1.6-47.9-22.5-76.1c-24.6-28.8-59-32.6-69.4-33.7
		c-9.6-1-36.5-3.6-64.3,11.7c-30.9,17-47.6,47.6-52.6,72.5c-6.9,34.5,0.5,60.8,0.5,60.8c3.3,11.7,8.1,20.6,4.1,31.1
		c-4.8,12.6-18.9,19.3-23.5,21.4c-16.9,7.9-28.6,3.9-31.1,10.2c-3.1,7.6,11.3,19.6,12.3,20.4c16,13.2,35.1,11.3,43.2,10.2l1.9-0.5
		c-1.1,1.5-2.2,3-3.3,4.6c-4.7,6.4-7.3,8.2-15.8,17.9c-6,6.8-12.2,13.8-10.2,18.4c2.6,6,17.6,4.7,25.5,4.1c8.2-0.7,27.3-2.6,48-15.8
		c13.6-8.7,22.4-19,27.6-26c16,21.9,31.7,36.4,42.9,45.4c8.6,7,19.7,14.8,33.7,14.8c2.6,0,12.4,0,14.8-5.1c1.8-3.8-1.3-8.4-6.6-16.9
		c-6.2-9.9-13.7-21.7-16.9-28.6c-0.5-1-1-2.1-1.4-3.3c17.8,4.8,36.4,5.6,45.4,5c13.9-1,22.1-4.2,28.6-8.5
		C354.6,312.8,366,305.2,364.6,298.4z"/>
	
		<image style="overflow:visible;" width="1600" height="1690" xlink:href="CB8FD045.jpg"  transform="matrix(0.4092 0 0 0.4092 -96.6843 -86.8433)">
	</image>
	<g class="st1">
		<path class="st4" d="M249.4,71c10.5,1.1,45.5,4,70.1,32.8c24,28.1,22.9,61.7,22.5,76.1c-1,30.9-13.5,54.1-18.9,63.8
			c-5.9,10.6-15.6,22.9-15.7,22.8c-4.8-4-5.3-9.3-6.4-14.7c0,0,11.1-18.1,16.4-31.7c5.4-13.9,11.8-30.2,11.1-50.8
			c-1.1-31.9-18.3-54.1-23.3-60.3C284.6,83.1,258.8,73.6,249.4,71"/>
		<path class="st4" d="M276.7,285.1c-1,3.1-2.2,7.7-2,13.3c0.2,9.1,3.7,15.9,5.6,19.1c5.4,1.8,13.2,3.9,22.7,4.9
			c7.2,0.8,16.4,1.6,27.8-0.8c7.7-1.6,17-3.4,25.8-10.7c3.1-2.6,7.5-8.1,8.9-10c-2.8,0.1-5.9,4.1-15.8,5.1c-19.6,2-20.5,3-29.9,2.6
			c-14.3-0.7-24.8-7.3-28.1-9.4C284.4,294.4,279.6,288.9,276.7,285.1z"/>
		<path class="st4" d="M215.2,307.3c6.9,6.5,15.3,14,25,22c13.7,11.2,20.7,16.9,30.6,22c7.5,3.8,18,8,31.7,10.2
			c-0.9,2.4-2.5,5.5-5.6,7.7c-8.3,5.6-21.1-0.6-29.9-4.9c-9.4-4.6-15.7-10-28.3-20.9c-15.4-13.3-20-20.1-22.2-28.1
			C215.6,312,215.3,309.2,215.2,307.3z"/>
		<path class="st4" d="M210.6,307.3c-4.6,2.9-11.2,7.1-19.4,12c-10.8,6.4-17,10.1-25.8,14.3c-11.1,5.3-17.8,8.5-27.3,10.2
			c-10.6,1.9-19.7,1.2-25.5,0.3c-1,1.6-2,4-1.3,6.4c1.5,4.9,9.7,6,13,6.4c8.7,1.1,16.7-0.8,31.7-7.4c18.8-8.3,28.2-12.4,38-21.4
			C202.2,320.4,207.4,312.7,210.6,307.3z"/>
		<path class="st4" d="M151.9,281c-3.2,2.8-8.8,7-16.9,9.2c-10.5,2.9-19.4,0.7-27.6-1.3c-5.7-1.4-14.3-4.2-23.7-10
			c0.4,2.6,1.2,5.9,3.1,9.4c5,9.3,15.2,12.9,35.2,19.7c8.7,3,11.7,3.4,14.8,2c4.7-2,6.9-7.1,10.2-14.6
			C149.6,289.8,151,284.7,151.9,281z"/>
	</g>
	<ellipse class="st5" cx="126.3" cy="287.9" rx="7.4" ry="5.1"/>
	<ellipse transform="matrix(0.866 -0.5 0.5 0.866 -142.062 126.8743)" class="st5" cx="165.7" cy="328.5" rx="9.7" ry="6.7"/>
	
		<ellipse transform="matrix(0.848 -0.5299 0.5299 0.848 -151.6836 129.2419)" class="st5" cx="149.5" cy="329.1" rx="4.5" ry="3.1"/>
	<g class="st1">
		<path class="st6" d="M135.3,205.5c0.6-18.4,3.7-33.5,6.6-44.4c4.2-15.5,8-29.4,19.1-44.2c11.4-15.1,24.3-23,32.9-28.1
			c16.9-10,32.6-14.3,43.1-16.3c-5.9-1.1-14.8-2-25.3-0.5c-18.5,2.7-30.8,11.5-36.8,15.8c-20.2,14.7-28.7,33.5-35,47.2
			c-6.4,14.1-13.3,29.7-10.7,49.8C130.5,193.7,133.2,200.8,135.3,205.5z"/>
		<path class="st6" d="M136.3,208.3c0.7-0.2,4.3,9.1,6.4,20.9c1.8,10.2,2.7,15.3,1,21.7c-3.3,12.2-13.1,18.7-14.6,19.7
			c-15.9,10.2-33.9,2.4-35.2,1.8c3.7,0.1,22.9,0.5,35-13.3c5.8-6.6,7.7-13.9,8.7-17.6C142.1,223.6,135.4,208.5,136.3,208.3z"/>
		<path class="st6" d="M157.7,281c0.6,1.7,1.3,4.3,1.4,7.5c0.1,7.5-3.7,12.9-8.2,19.1c-19.4,26.9-23.2,29.8-26.6,32
			c-5.5,3.6-10.5,5.6-14,6.8c1.7-4.2,4.6-10.4,9.5-16.7c6.3-8,12.2-11.7,16.7-15.3C143.4,308.7,151.8,299,157.7,281z"/>
	</g>
	<g class="st1">
		<g>
			<path class="st7" d="M301.6,254.5c1.3,8.9,6.7,15.2,9.5,18.1c12.4,12.6,22.6,12.1,43.9,18.4c4.7,1.4,8.7,3.8,9.5,7.4
				c1.5,6.8-10,14.4-12.2,15.9c-6.4,4.3-14.7,7.5-28.6,8.5c-9.8,0.7-25.4,0.6-44.4-5.3"/>
			<path class="st7" d="M275.7,286.4c-2.3,16.3,0.7,27.4,4.1,34.7c3.2,6.9,10.6,18.7,16.9,28.6c5.3,8.5,8.5,13.1,6.6,16.9
				c-2.5,5.1-12.2,5.1-14.8,5.1c-14,0-25.1-7.8-33.7-14.8c-11.2-9.1-26.9-23.6-42.9-45.4c-5.1,7.1-13.9,17.3-27.6,26
				c-20.7,13.3-39.8,15.2-48,15.8c-7.9,0.7-23,1.9-25.5-4.1c-2-4.6,4.2-11.6,10.2-18.4c8.5-9.7,11.2-11.5,15.8-17.9
				c7.3-10,12.9-17.8,17.9-32.2"/>
			<path class="st7" d="M307,266.8c4.8-5.7,9.8-12.2,15.7-22.8c5.4-9.7,17.9-32.9,18.9-63.8c0.5-14.4,1.6-47.9-22.5-76.1
				c-24.6-28.8-59-32.6-69.4-33.7c-9.6-1-36.5-3.6-64.3,11.7c-30.9,17-47.6,47.6-52.6,72.5c-6.9,34.5,0.5,60.8,0.5,60.8
				c3.3,11.7,8.1,20.6,4.1,31.1c-4.8,12.6-18.9,19.3-23.5,21.4c-16.9,7.9-28.6,3.9-31.1,10.2c-3.1,7.6,11.3,19.6,12.3,20.4
				c16,13.2,35.1,11.3,43.2,10.2"/>
			<path class="st7" d="M185.2,207.9c0.6,1.1,6.7,11.3,19,12.7c9,1,17.9-3.1,23.3-10.6"/>
			<path class="st7" d="M157.7,150.8c3.4-7,10.4-11.3,18-11.1c8.2,0.2,15.5,5.8,18,13.8"/>
			<path class="st7" d="M234.4,159.3c5.1-6.6,13.7-9.6,21.7-7.4c7.5,2,13.2,8.2,14.8,15.9"/>
		</g>
	</g>
</g>
<g id="Layer_2">
	<g>
		<g>
			<g>
				<g>
					<g>
						<path class="st8" d="M17.4,30.2c4,0,4.1-6.3,0-6.3C13.4,23.9,13.3,30.2,17.4,30.2L17.4,30.2z"/>
					</g>
				</g>
				<g>
					<g>
						<path class="st8" d="M135.9,60.5c4,0,4.1-6.3,0-6.3C131.8,54.2,131.8,60.5,135.9,60.5L135.9,60.5z"/>
					</g>
				</g>
				<g>
					<g>
						<path class="st8" d="M14.4,48.2c9.2,0,9.2-14.3,0-14.3C5.2,33.9,5.2,48.2,14.4,48.2L14.4,48.2z"/>
					</g>
				</g>
				<g>
					<g>
						<path class="st8" d="M102,43.8c13.3,0,13.3-20.6,0-20.6C88.8,23.2,88.8,43.8,102,43.8L102,43.8z"/>
					</g>
				</g>
				<g>
					<g>
						<path class="st8" d="M123.1,83.6c15.5,0,15.5-24.1,0-24.1C107.6,59.5,107.6,83.6,123.1,83.6L123.1,83.6z"/>
					</g>
				</g>
				<g>
					<g>
						<path class="st8" d="M43.5,31.7c14.6,0,14.6-22.7,0-22.7C28.8,9,28.8,31.7,43.5,31.7L43.5,31.7z"/>
					</g>
				</g>
				<g>
					<g>
						<path class="st8" d="M63.6,130.6c7.5,0,13.8-6.3,13.8-13.8c0-7.5-6.3-13.8-13.8-13.8c-7.5,0-13.8,6.3-13.8,13.8
							C49.8,124.3,56.1,130.6,63.6,130.6L63.6,130.6z"/>
					</g>
				</g>
				<g>
					<g>
						<path class="st8" d="M66.1,119.9c12.9,0,26.5-5.6,35.7-14.8c8.8-8.8,15.3-23.1,14.8-35.7c-0.6-13.1-4.9-26.6-14.8-35.7
							c-9.9-9.1-22-14.8-35.7-14.8c-12.9,0-26.5,5.6-35.7,14.8C21.6,42.5,15,56.8,15.6,69.4c0.6,13.1,4.9,26.6,14.8,35.7
							C40.3,114.2,52.4,119.9,66.1,119.9L66.1,119.9z"/>
					</g>
				</g>
			</g>
			<path class="st9" d="M114.6,102c-0.3-1.3-1.7-2.1-3.3-2.6c-7.5-2.2-11-2-15.3-6.4c-0.4-0.4-1-1.1-1.6-2l0.2,0
				c1.7-2,3.4-4.2,5.5-8c1.9-3.4,6.2-11.5,6.6-22.3c0.2-5,0.6-16.7-7.8-26.6c-8.6-10.1-20.6-11.4-24.3-11.8
				C71.1,22,61.7,21.1,52,26.5c-10.8,5.9-16.6,16.6-18.4,25.3c-2.4,12.1,0.2,21.2,0.2,21.2c1.2,4.1,2.8,7.2,1.4,10.9
				c-1.7,4.4-6.6,6.7-8.2,7.5c-5.9,2.8-10,1.4-10.9,3.6c-1.1,2.6,4,6.9,4.3,7.1c5.6,4.6,12.3,3.9,15.1,3.6l0.7-0.2
				c-0.4,0.5-0.8,1-1.2,1.6c-1.6,2.2-2.5,2.9-5.5,6.2c-2.1,2.4-4.3,4.8-3.6,6.4c0.9,2.1,6.1,1.7,8.9,1.4c2.9-0.2,9.5-0.9,16.8-5.5
				c4.8-3,7.8-6.6,9.6-9.1c5.6,7.6,11.1,12.7,15,15.9c3,2.4,6.9,5.2,11.8,5.2c0.9,0,4.3,0,5.2-1.8c0.6-1.3-0.5-2.9-2.3-5.9
				c-2.2-3.5-4.8-7.6-5.9-10c-0.2-0.4-0.3-0.8-0.5-1.2c6.2,1.7,12.7,2,15.9,1.7c4.9-0.4,7.7-1.5,10-3
				C111.1,107.1,115.1,104.4,114.6,102z"/>
			<g>
				<path class="st10" d="M74.4,22.6C78,23,90.3,24,98.9,34.1c8.4,9.8,8,21.5,7.8,26.6c-0.4,10.8-4.7,18.9-6.6,22.3
					c-2.1,3.7-5.5,8-5.5,8c-1.7-1.4-1.9-3.3-2.2-5.1c0,0,3.9-6.3,5.7-11.1c1.9-4.9,4.1-10.5,3.9-17.7c-0.4-11.1-6.4-18.9-8.1-21.1
					C86.7,26.8,77.7,23.5,74.4,22.6"/>
				<path class="st10" d="M83.9,97.4c-0.4,1.1-0.8,2.7-0.7,4.6c0.1,3.2,1.3,5.5,2,6.7c1.9,0.6,4.6,1.3,7.9,1.7
					c2.5,0.3,5.7,0.6,9.7-0.3c2.7-0.6,6-1.2,9-3.7c1.1-0.9,2.6-2.8,3.1-3.5c-1,0-2.1,1.4-5.5,1.8c-6.9,0.7-7.2,1-10.4,0.9
					c-5-0.2-8.6-2.5-9.8-3.3C86.6,100.6,84.9,98.7,83.9,97.4z"/>
				<path class="st10" d="M62.4,105.2c2.4,2.3,5.3,4.9,8.7,7.7c4.8,3.9,7.2,5.9,10.7,7.7c2.6,1.3,6.3,2.8,11.1,3.6
					c-0.3,0.8-0.9,1.9-2,2.7c-2.9,2-7.4-0.2-10.4-1.7c-3.3-1.6-5.5-3.5-9.9-7.3c-5.4-4.7-7-7-7.8-9.8
					C62.6,106.8,62.5,105.8,62.4,105.2z"/>
				<path class="st10" d="M60.8,105.2c-1.6,1-3.9,2.5-6.8,4.2c-3.8,2.3-6,3.5-9,5c-3.9,1.9-6.2,3-9.5,3.6c-3.7,0.7-6.9,0.4-8.9,0.1
					c-0.3,0.6-0.7,1.4-0.4,2.2c0.5,1.7,3.4,2.1,4.5,2.2c3,0.4,5.8-0.3,11.1-2.6c6.6-2.9,9.9-4.3,13.3-7.5
					C57.9,109.7,59.7,107,60.8,105.2z"/>
				<path class="st10" d="M40.3,96c-1.1,1-3.1,2.4-5.9,3.2c-3.7,1-6.8,0.3-9.6-0.4c-2-0.5-5-1.5-8.3-3.5c0.1,0.9,0.4,2.1,1.1,3.3
					c1.8,3.2,5.3,4.5,12.3,6.9c3,1,4.1,1.2,5.2,0.7c1.6-0.7,2.4-2.5,3.6-5.1C39.5,99,40,97.2,40.3,96z"/>
			</g>
			<g>
				<path class="st11" d="M34.5,69.6c0.2-6.4,1.3-11.7,2.3-15.5c1.5-5.4,2.8-10.3,6.7-15.4c4-5.3,8.5-8,11.5-9.8
					c5.9-3.5,11.4-5,15.1-5.7c-2.1-0.4-5.2-0.7-8.8-0.2c-6.4,0.9-10.8,4-12.8,5.5c-7.1,5.1-10,11.7-12.2,16.5
					c-2.2,4.9-4.6,10.4-3.7,17.4C32.9,65.5,33.8,68,34.5,69.6z"/>
				<path class="st11" d="M34.9,70.6c0.2-0.1,1.5,3.2,2.2,7.3c0.6,3.6,1,5.3,0.4,7.6c-1.1,4.3-4.6,6.5-5.1,6.9
					c-5.6,3.6-11.8,0.8-12.3,0.6c1.3,0.1,8,0.2,12.2-4.6c2-2.3,2.7-4.9,3-6.2C36.9,75.9,34.6,70.6,34.9,70.6z"/>
				<path class="st11" d="M42.4,96c0.2,0.6,0.5,1.5,0.5,2.6c0,2.6-1.3,4.5-2.9,6.7c-6.8,9.4-8.1,10.4-9.3,11.2
					c-1.9,1.2-3.7,2-4.9,2.4c0.6-1.5,1.6-3.6,3.3-5.8c2.2-2.8,4.3-4.1,5.8-5.4C37.4,105.7,40.3,102.3,42.4,96z"/>
			</g>
			<g>
				<g>
					<path class="st12" d="M92.6,86.7c0.4,3.1,2.3,5.3,3.3,6.3c4.3,4.4,7.9,4.2,15.3,6.4c1.6,0.5,3,1.3,3.3,2.6
						c0.5,2.4-3.5,5-4.3,5.5c-2.2,1.5-5.1,2.6-10,3c-3.4,0.2-8.9,0.2-15.5-1.8"/>
					<path class="st12" d="M83.6,97.9c-0.8,5.7,0.2,9.6,1.4,12.1c1.1,2.4,3.7,6.5,5.9,10c1.9,3,3,4.6,2.3,5.9
						c-0.9,1.8-4.3,1.8-5.2,1.8c-4.9,0-8.8-2.7-11.8-5.2c-3.9-3.2-9.4-8.2-15-15.9c-1.8,2.5-4.9,6.1-9.6,9.1
						c-7.2,4.6-13.9,5.3-16.8,5.5c-2.8,0.2-8,0.7-8.9-1.4c-0.7-1.6,1.5-4,3.6-6.4c3-3.4,3.9-4,5.5-6.2c2.6-3.5,4.5-6.2,6.2-11.2"/>
					<path class="st12" d="M94.5,91c1.7-2,3.4-4.2,5.5-8c1.9-3.4,6.2-11.5,6.6-22.3c0.2-5,0.6-16.7-7.8-26.6
						c-8.6-10.1-20.6-11.4-24.3-11.8C71.1,22,61.7,21.1,52,26.5c-10.8,5.9-16.6,16.6-18.4,25.3c-2.4,12.1,0.2,21.2,0.2,21.2
						c1.2,4.1,2.8,7.2,1.4,10.9c-1.7,4.4-6.6,6.7-8.2,7.5c-5.9,2.8-10,1.4-10.9,3.6c-1.1,2.6,4,6.9,4.3,7.1
						c5.6,4.6,12.3,3.9,15.1,3.6"/>
					<path class="st12" d="M52,70.4c0.2,0.4,2.3,4,6.7,4.4c3.1,0.3,6.3-1.1,8.1-3.7"/>
					<path class="st12" d="M42.4,50.5c1.2-2.4,3.6-4,6.3-3.9c2.9,0.1,5.4,2,6.3,4.8"/>
					<path class="st12" d="M69.2,53.4c1.8-2.3,4.8-3.3,7.6-2.6c2.6,0.7,4.6,2.9,5.2,5.5"/>
				</g>
			</g>
		</g>
		<g>
			<path class="st13" d="M201.8,75.8c0,17-8.9,28-24.6,28c-15.4,0-24-10.6-24-26.8c0-16.5,7.5-29.1,24.2-29.1
				C194.6,47.9,201.8,58.7,201.8,75.8z M189,75.7c0-7.1-2.6-16.5-11.4-16.5c-9.2,0-11.7,7.6-11.7,16.6c0,7.5,3,16.4,11.7,16.4
				C186.2,92.2,189,84.1,189,75.7z"/>
			<path class="st13" d="M250.2,58.7c0,3.6-2.9,6.4-6.3,6.4c-4.9,0-5.5-5.9-12.3-5.9c-9,0-11.9,9.2-11.9,16.8
				c0,7.2,4.4,14.7,12,14.7c6.9,0,10-6,14.5-6c3.3,0,5.8,2.3,5.8,5.7c0,9.4-12.6,12.7-20,12.7c-15.9,0-25.3-9.6-25.3-25.3
				c0-10.1,1.7-22.3,14.6-28.8c3.4-1.7,8.3-1.8,12.2-1.8C239.9,47.2,250.2,50.7,250.2,58.7z"/>
			<path class="st13" d="M276.7,103.4c-4.8,0-7.5-2.7-7.5-7.6c0-9.2,1.2-13.4,1.2-28.5c0-3.4,0-6.2-3-6.2c-2,0-4.1,0.4-6.1,0.4
				c-4.2,0-7.4-2.2-7.4-6.8c0-5.2,3.7-6.4,8.2-6.4c4.7,0,9.5,0.7,14.5,0.7c4.9,0,9.9-0.7,15-0.7c3.9,0,7.6,1.5,7.6,6.2
				c0,5.9-2.9,7-6.9,7c-2.2,0-4.7-0.2-6.8-0.2c-3,0-3,3.2-3,5.4c0,14.2,1.3,19.3,1.3,29.6C283.7,100.6,281.5,103.4,276.7,103.4z"/>
			<path class="st13" d="M325.2,103.7c-15.4,0-24.5-11.1-24.5-26.9c0-17.5,7.6-29.5,25.1-29.5c17.4,0,24.5,13,24.5,28.1
				C350.3,91.3,342,103.7,325.2,103.7z M337.4,74.7c0-8.4-3.5-16-12.6-16c-8.6,0-11.5,9.3-11.5,16.3c0,8.9,3.5,17.4,12,17.4
				C334.5,92.3,337.4,83.7,337.4,74.7z"/>
			<path class="st13" d="M403.6,75.8c0,17-8.9,28-24.6,28c-15.4,0-24-10.6-24-26.8c0-16.5,7.5-29.1,24.2-29.1
				C396.3,47.9,403.6,58.7,403.6,75.8z M390.8,75.7c0-7.1-2.5-16.5-11.4-16.5c-9.2,0-11.7,7.6-11.7,16.6c0,7.5,3,16.4,11.7,16.4
				C387.9,92.2,390.8,84.1,390.8,75.7z"/>
			<path class="st13" d="M426.3,51.4c3.6,4.6,7.7,13.1,10.1,18.5c2.4,5.2,5.5,10.2,8.1,15.3c0.1,0.2,0.4,0.8,0.7,0.8
				c0.5,0,0.5-1.9,0.5-2c0-7.2-2.5-17.9-2.5-26.8c0-6.4,0.7-9.6,6.3-9.6c5.8,0,7.4,3.1,7.4,9.6c0,8.1-0.9,11-0.9,24.8
				c0,2.4,0.1,4.7,0.1,7.1c0,5.8-0.2,13.9-7.9,13.9c-1.8,0-3.5-0.6-5-1.7c-6.3-4.3-15.5-23.4-19.3-30.6c-0.3-0.7-1.4-3-2.1-3
				c-0.3,0-0.4,2.2-0.4,2.4c0,9.4,1.8,16.4,1.8,25c0,5-1.3,8-6.7,8c-5.3,0-6.6-5-6.6-9.4c0-5.3,0.3-10.8,0.3-16.1
				c0-6.6-0.3-12.7-0.3-19c0-6.6,1.6-11,8.9-11C421.8,47.7,424.4,48.9,426.3,51.4z"/>
		</g>
	</g>
</g>
</svg>